<svg width="1920" height="234" viewBox="0 0 1920 234" fill="none" xmlns="http://www.w3.org/2000/svg">
<g opacity="0.8">
<path d="M324.365 124.078C323.819 122.291 321.911 121.329 320.138 121.879C318.366 122.429 317.411 124.353 317.957 126.14L326.682 153.217C327.296 154.866 329.068 155.828 330.772 155.347C332.545 154.798 333.635 152.942 333.09 151.155C333.09 151.086 324.365 124.078 324.365 124.078Z" fill="#8C98A4"/>
<path d="M310.868 128.545C310.322 126.758 308.413 125.796 306.641 126.346C304.869 126.896 303.914 128.82 304.46 130.607L313.185 157.684C313.799 159.333 315.571 160.295 317.275 159.814C319.048 159.265 320.138 157.409 319.593 155.622C319.593 155.554 310.868 128.545 310.868 128.545Z" fill="#8C98A4"/>
<path d="M335.41 146.55C337.182 146 338.136 144.076 337.591 142.289C337.046 140.502 335.137 139.54 333.365 140.09L306.438 148.818C304.802 149.437 303.848 151.223 304.325 152.941C304.871 154.728 306.711 155.828 308.483 155.278C308.62 155.278 335.41 146.55 335.41 146.55Z" fill="#8C98A4"/>
<path d="M312.025 154.179C313.798 153.629 316.047 152.873 318.433 152.048C317.888 150.261 317.138 147.993 316.32 145.588L309.912 147.719L312.025 154.179Z" fill="#8C98A4"/>
<path d="M325.591 149.712C328.045 148.887 330.294 148.2 331.999 147.582C331.453 145.795 330.703 143.527 329.885 141.122L323.478 143.252L325.591 149.712Z" fill="#8C98A4"/>
<path d="M330.977 132.874C332.75 132.324 333.704 130.4 333.159 128.613C332.613 126.826 330.705 125.864 328.932 126.414L302.074 135.21C300.438 135.829 299.484 137.616 299.961 139.334C300.506 141.189 302.347 142.289 304.119 141.67C304.187 141.67 330.977 132.874 330.977 132.874Z" fill="#8C98A4"/>
<path d="M307.664 140.502C309.436 139.953 311.686 139.197 314.072 138.372C313.254 135.898 312.572 133.63 311.959 131.912L305.551 134.042L307.664 140.502Z" fill="#8C98A4"/>
<path d="M321.161 136.104C323.615 135.279 325.865 134.592 327.569 133.973C326.751 131.499 326.069 129.232 325.456 127.513L319.048 129.644L321.161 136.104Z" fill="#8C98A4"/>
<path d="M362.608 131.225C363.767 131.775 363.903 132.118 362.949 133.905C361.994 135.761 361.79 135.83 360.563 135.348C359.063 134.73 357.222 134.249 355.995 134.249C354.019 134.249 352.723 134.936 352.723 136.036C352.723 139.609 364.107 137.685 364.107 145.382C364.107 149.231 360.835 151.773 355.927 151.773C353.337 151.773 350.133 150.88 347.952 149.78C346.861 149.231 346.793 148.887 347.747 147.031C348.565 145.451 348.838 145.245 349.997 145.726C351.905 146.55 354.223 147.169 355.859 147.169C357.7 147.169 358.859 146.413 358.859 145.313C358.859 141.808 347.27 143.458 347.27 136.036C347.27 132.118 350.542 129.438 355.382 129.438C357.7 129.644 360.631 130.332 362.608 131.225Z" fill="#8C98A4"/>
<path d="M371.809 122.153V150.742C371.809 151.154 371.332 151.635 370.718 151.635H367.719C367.037 151.635 366.628 151.154 366.628 150.742V122.153C366.628 120.71 367.037 120.641 369.218 120.641C371.672 120.572 371.809 120.779 371.809 122.153Z" fill="#8C98A4"/>
<path fill-rule="evenodd" clip-rule="evenodd" d="M392.944 150.468V138.166C392.944 132.806 389.331 129.645 383.605 129.645C381.014 129.645 378.151 130.469 376.106 131.844C375.015 132.531 375.015 132.875 376.106 134.593C377.265 136.311 377.47 136.379 378.56 135.761C379.924 134.936 381.628 134.386 383.059 134.386C386.059 134.386 387.831 135.761 387.831 138.029V139.472C386.4 138.853 384.627 138.51 382.718 138.51C377.606 138.51 374.266 141.259 374.266 145.382C374.266 149.231 377.265 151.842 381.696 151.842C384.014 151.842 386.331 150.88 387.899 149.093L387.831 150.399C387.763 151.086 388.24 151.567 388.922 151.567H391.853C392.466 151.567 392.944 151.155 392.944 150.468ZM382.31 147.717C380.469 147.717 379.242 146.755 379.242 145.312C379.242 143.525 381.083 142.151 383.809 142.151C385.105 142.151 386.604 142.357 387.763 142.838V144.762C386.604 146.618 384.559 147.717 382.31 147.717Z" fill="#8C98A4"/>
<path d="M413.188 131.293C414.279 131.911 414.279 132.255 413.12 134.111C412.029 135.829 411.825 135.966 410.598 135.348C409.712 134.867 408.212 134.454 407.053 134.454C403.304 134.454 400.85 136.928 400.85 140.708C400.85 144.625 403.304 147.237 407.053 147.237C408.348 147.237 409.984 146.756 411.007 146.137C412.098 145.519 412.302 145.519 413.461 147.237C414.484 148.817 414.484 149.161 413.529 149.848C411.893 151.017 409.235 151.91 406.917 151.91C400.032 151.91 395.396 147.443 395.396 140.777C395.396 134.111 400.032 129.712 406.985 129.712C409.166 129.644 411.62 130.331 413.188 131.293Z" fill="#8C98A4"/>
<path d="M435.751 148.886C436.637 149.986 436.296 150.398 434.115 151.154C431.934 151.979 431.593 151.91 430.843 150.879L424.64 142.563L421.845 145.244V150.673C421.845 151.085 421.368 151.566 420.754 151.566H417.755C417.073 151.566 416.664 151.085 416.664 150.673V122.153C416.664 120.709 417.073 120.641 419.254 120.641C421.777 120.641 421.845 120.847 421.845 122.153V138.371L430.298 130.193C431.252 129.3 431.729 129.369 433.433 130.468C435.274 131.636 435.41 131.98 434.524 132.873L428.253 139.059L435.751 148.886Z" fill="#8C98A4"/>
<path fill-rule="evenodd" clip-rule="evenodd" d="M571.938 135.724C572.948 135.724 574.225 135.693 575.47 135.663L575.471 135.663C576.659 135.634 577.819 135.606 578.694 135.606V140.553C576.482 140.553 573.851 140.553 571.938 140.67V148.031C572.87 147.975 573.807 147.912 574.749 147.85L574.75 147.85C576.769 147.716 578.808 147.581 580.847 147.501V152.27L566.916 153.33V124.065H580.847V129.011H571.938V135.724ZM558.615 154.16L558.615 154.16C557.927 154.231 557.228 154.302 556.513 154.39L550.773 137.785V155.097C548.979 155.274 547.365 155.509 545.631 155.804V124.065H550.414L556.931 142.084V124.065H562.013V153.743C560.89 153.927 559.767 154.042 558.615 154.16L558.615 154.16ZM594.3 129.07H599.501C599.501 129.07 599.501 124.065 599.561 124.065H584.076V129.07H589.277V151.917C590.892 151.858 592.625 151.858 594.3 151.858V129.07ZM607.691 135.371H614.567V140.317H607.691V151.564H602.729V124.065H616.779V129.011H607.691V135.371ZM630.186 147.443C628.457 147.343 626.715 147.242 624.972 147.206V124.065H619.95V151.858C624.554 151.976 629.038 152.212 633.522 152.506V147.619C632.418 147.572 631.305 147.508 630.186 147.443ZM637.766 152.859C638.326 152.9 638.892 152.934 639.464 152.968L639.464 152.968C640.541 153.032 641.635 153.097 642.729 153.213V124.065H637.766V152.859ZM658.334 139.139L664.731 124.065H659.171L655.643 132.368L652.355 124.065H646.974L652.833 138.963L646.376 153.448C647.093 153.542 647.811 153.618 648.528 153.693C649.605 153.806 650.681 153.919 651.757 154.096L655.464 145.675L659.051 154.861C659.721 154.964 660.384 155.075 661.045 155.185C662.27 155.389 663.488 155.592 664.731 155.745L658.334 139.139Z" fill="#8C98A4"/>
<path fill-rule="evenodd" clip-rule="evenodd" d="M799.336 127.366C799.336 128.6 798.26 129.658 797.004 129.658C795.748 129.658 794.672 128.6 794.672 127.366C794.672 126.133 795.748 125.075 797.004 125.075C798.26 125.075 799.336 126.133 799.336 127.366ZM797.004 131.538C795.629 131.538 794.553 132.596 794.553 133.947C794.553 135.298 795.629 136.356 797.004 136.356C798.379 136.356 799.455 135.298 799.455 133.947C799.455 132.537 798.379 131.538 797.004 131.538ZM794.493 140.41C794.493 139.058 795.629 137.942 797.004 137.942C798.38 137.942 799.575 139.058 799.516 140.41C799.516 141.761 798.38 142.877 797.004 142.877C795.629 142.877 794.493 141.761 794.493 140.41ZM797.004 144.464C795.629 144.464 794.553 145.522 794.553 146.873C794.553 148.224 795.629 149.282 797.004 149.282C798.379 149.282 799.455 148.224 799.455 146.873C799.455 145.58 798.379 144.464 797.004 144.464ZM794.672 153.395C794.672 152.161 795.748 151.104 797.004 151.104C798.319 151.104 799.336 152.161 799.336 153.395C799.336 154.629 798.26 155.687 797.004 155.687C795.748 155.687 794.672 154.629 794.672 153.395ZM803.461 131.244C801.967 131.244 800.711 132.478 800.711 133.947C800.711 135.416 801.967 136.65 803.461 136.65C804.956 136.65 806.212 135.416 806.212 133.947C806.212 132.478 804.956 131.244 803.461 131.244ZM800.591 140.469C800.591 138.883 801.907 137.649 803.461 137.649C805.016 137.649 806.331 138.883 806.331 140.469C806.331 142.056 805.016 143.29 803.461 143.29C801.847 143.29 800.591 141.997 800.591 140.469ZM803.461 144.17C801.967 144.17 800.711 145.404 800.711 146.873C800.711 148.342 801.967 149.576 803.461 149.576C804.956 149.576 806.212 148.342 806.212 146.873C806.212 145.404 804.956 144.17 803.461 144.17ZM806.929 140.41C806.929 138.647 808.423 137.296 810.098 137.296C811.772 137.296 813.147 138.647 813.266 140.41C813.266 142.173 811.891 143.524 810.098 143.524C808.304 143.524 806.929 142.055 806.929 140.41ZM790.487 131.832C789.351 131.832 788.394 132.772 788.394 133.888C788.394 135.005 789.351 135.945 790.487 135.945C791.623 135.945 792.579 135.005 792.579 133.888C792.579 132.772 791.682 131.832 790.487 131.832ZM788.276 140.411C788.276 139.177 789.232 138.237 790.488 138.237C791.743 138.237 792.7 139.177 792.7 140.411C792.7 141.645 791.743 142.585 790.488 142.585C789.232 142.585 788.276 141.645 788.276 140.411ZM790.487 144.758C789.351 144.758 788.394 145.698 788.394 146.814C788.394 147.931 789.351 148.871 790.487 148.871C791.623 148.871 792.579 147.931 792.579 146.814C792.579 145.698 791.682 144.758 790.487 144.758ZM782.057 140.468C782.057 139.41 782.894 138.588 783.97 138.588C785.046 138.588 785.883 139.41 785.883 140.468C785.883 141.526 785.046 142.348 783.97 142.348C782.894 142.348 782.057 141.526 782.057 140.468Z" fill="#8C98A4"/>
<path d="M837.064 136.414C836.825 136.414 836.646 136.649 836.646 136.825V153.1C836.646 153.335 836.885 153.512 837.064 153.512H839.037C839.276 153.512 839.456 153.277 839.456 153.1V136.825C839.456 136.59 839.216 136.414 839.037 136.414H837.064Z" fill="#8C98A4"/>
<path d="M838.14 129.539C837.064 129.539 836.227 130.362 836.227 131.419C836.227 132.477 837.064 133.3 838.14 133.3C839.216 133.3 840.053 132.477 840.053 131.419C840.053 130.362 839.156 129.539 838.14 129.539Z" fill="#8C98A4"/>
<path d="M879.515 136.414C879.276 136.414 879.097 136.649 879.097 136.825V153.1C879.097 153.335 879.336 153.512 879.515 153.512H881.488C881.727 153.512 881.907 153.277 881.907 153.1V136.825C881.907 136.59 881.668 136.414 881.488 136.414H879.515Z" fill="#8C98A4"/>
<path d="M880.472 129.539C879.396 129.539 878.559 130.362 878.559 131.419C878.559 132.477 879.396 133.3 880.472 133.3C881.548 133.3 882.385 132.477 882.385 131.419C882.385 130.362 881.548 129.539 880.472 129.539Z" fill="#8C98A4"/>
<path fill-rule="evenodd" clip-rule="evenodd" d="M900.659 151.729C900.647 151.787 900.617 151.857 900.543 151.926C900.543 152.044 900.419 152.161 900.169 152.103L900.265 152.213C900.253 152.217 900.242 152.22 900.232 152.22H899.796V152.044V151.515H900.232C900.357 151.515 900.482 151.515 900.544 151.633C900.617 151.633 900.647 151.673 900.659 151.729ZM900.659 151.729C900.668 151.69 900.668 151.656 900.668 151.633V151.515C900.668 151.515 900.668 151.398 900.543 151.398C900.543 151.398 900.419 151.28 900.294 151.28H900.045H899.484V152.749H899.733V152.22H900.045L900.481 152.749H900.73L900.265 152.213C900.286 152.205 900.31 152.191 900.337 152.176C900.398 152.143 900.471 152.103 900.544 152.103C900.668 152.103 900.668 151.985 900.668 151.868C900.668 151.819 900.668 151.77 900.659 151.729Z" fill="#8C98A4"/>
<path fill-rule="evenodd" clip-rule="evenodd" d="M898.707 152.044C898.707 151.338 899.365 150.692 900.082 150.692C900.859 150.692 901.457 151.28 901.457 152.044C901.457 152.749 900.8 153.395 900.082 153.395C899.365 153.395 898.707 152.749 898.707 152.044ZM898.827 152.045C898.827 152.75 899.365 153.279 900.083 153.279C900.74 153.279 901.338 152.75 901.338 152.045C901.338 151.34 900.8 150.811 900.083 150.811C899.365 150.811 898.827 151.34 898.827 152.045Z" fill="#8C98A4"/>
<path d="M853.507 139.058C853.746 139.058 853.925 138.823 853.925 138.646V136.707C853.925 136.472 853.686 136.296 853.507 136.296H849.262V130.068C849.262 129.833 849.023 129.657 848.843 129.657H846.87C846.631 129.657 846.452 129.892 846.452 130.068V136.296H844.359C844.12 136.296 843.94 136.531 843.94 136.707V138.646C843.94 138.881 844.18 139.058 844.359 139.058H846.452V148.458C846.452 151.337 848.425 153.218 851.295 153.218H853.387C853.626 153.218 853.806 152.983 853.806 152.806V150.867C853.806 150.632 853.567 150.456 853.387 150.456H851.593C850.218 150.456 849.262 149.516 849.262 148.047V138.999H853.507V139.058Z" fill="#8C98A4"/>
<path d="M895.477 139.058C895.717 139.058 895.896 138.823 895.896 138.646V136.707C895.896 136.472 895.657 136.296 895.477 136.296H891.232V130.068C891.232 129.833 890.993 129.657 890.814 129.657H888.841C888.602 129.657 888.422 129.892 888.422 130.068V136.296H886.33C886.091 136.296 885.911 136.531 885.911 136.707V138.646C885.911 138.881 886.15 139.058 886.33 139.058H888.422V148.458C888.422 151.337 890.395 153.218 893.265 153.218H895.358C895.597 153.218 895.776 152.983 895.776 152.806V150.867C895.776 150.632 895.537 150.456 895.358 150.456H893.445C892.069 150.456 891.113 149.516 891.113 148.047V138.999H895.418L895.477 139.058Z" fill="#8C98A4"/>
<path d="M824.508 139.059V152.925C824.508 153.16 824.747 153.336 824.927 153.336H826.9C827.139 153.336 827.318 153.101 827.318 152.925V139.059H831.982C832.221 139.059 832.4 138.824 832.4 138.648V136.709C832.4 136.474 832.161 136.297 831.982 136.297H827.318V132.655C827.318 131.186 828.395 130.187 829.65 130.187H831.982C832.221 130.187 832.4 129.952 832.4 129.776V127.837C832.4 127.602 832.161 127.425 831.982 127.425H829.77C826.84 127.425 824.508 129.834 824.508 132.596V136.297H822.416C822.176 136.297 821.997 136.532 821.997 136.709V138.648C821.997 138.883 822.236 139.059 822.416 139.059H824.508Z" fill="#8C98A4"/>
<path fill-rule="evenodd" clip-rule="evenodd" d="M866.719 135.768C869.051 135.768 871.263 136.708 872.818 138.353C874.372 139.998 875.209 142.29 875.209 144.816C875.209 151.103 870.845 153.923 866.659 153.923C862.414 153.923 858.109 151.162 858.109 144.816V127.718C858.109 127.542 858.289 127.307 858.528 127.307H860.501C860.68 127.307 860.919 127.483 860.919 127.718V138.059C862.295 136.708 864.507 135.768 866.719 135.768ZM860.859 144.876C860.859 147.99 862.414 151.28 866.659 151.28C870.904 151.28 872.399 147.99 872.458 144.876C872.458 141.115 870.127 138.53 866.659 138.53C863.191 138.53 860.859 141.057 860.859 144.876Z" fill="#8C98A4"/>
<path d="M1047.97 133.951H1034.03V138.062H1043.95C1043.45 143.854 1038.62 146.407 1034.1 146.407C1028.27 146.407 1023.19 141.799 1023.19 135.384C1023.19 129.093 1028.02 124.235 1034.1 124.235C1038.8 124.235 1041.53 127.225 1041.53 127.225L1044.38 124.235C1044.38 124.235 1040.66 120.125 1033.91 120.125C1025.3 120.063 1018.67 127.349 1018.67 135.259C1018.67 142.982 1024.93 150.518 1034.16 150.518C1042.27 150.518 1048.22 144.975 1048.22 136.692C1048.22 134.948 1047.97 133.951 1047.97 133.951Z" fill="#8C98A4"/>
<path fill-rule="evenodd" clip-rule="evenodd" d="M1049.52 140.616C1049.52 135.384 1053.61 130.9 1059.31 130.9C1064.02 130.9 1069.1 134.263 1069.16 140.74C1069.16 146.47 1064.83 150.518 1059.44 150.518C1053.49 150.518 1049.52 145.972 1049.52 140.616ZM1064.83 140.741C1064.83 137.129 1062.16 134.824 1059.37 134.824C1056.21 134.824 1053.8 137.315 1053.86 140.679C1053.86 144.166 1056.28 146.657 1059.37 146.657C1062.22 146.657 1064.83 144.353 1064.83 140.741Z" fill="#8C98A4"/>
<path fill-rule="evenodd" clip-rule="evenodd" d="M1070.84 140.616C1070.84 135.384 1074.93 130.9 1080.63 130.9C1085.34 130.9 1090.42 134.263 1090.48 140.74C1090.48 146.47 1086.14 150.518 1080.75 150.518C1074.8 150.518 1070.84 145.972 1070.84 140.616ZM1086.14 140.741C1086.14 137.129 1083.48 134.824 1080.69 134.824C1077.53 134.824 1075.11 137.315 1075.17 140.679C1075.17 144.166 1077.59 146.657 1080.69 146.657C1083.54 146.657 1086.14 144.353 1086.14 140.741Z" fill="#8C98A4"/>
<path fill-rule="evenodd" clip-rule="evenodd" d="M1092.15 140.739C1092.15 135.57 1096.24 130.961 1101.51 130.961C1103.8 130.961 1105.53 131.833 1106.65 133.204V131.522H1110.74V149.147C1110.74 156.061 1106.77 159.361 1101.57 159.361C1096.8 159.361 1094.13 156.434 1092.83 153.632L1096.61 152.075C1097.17 153.32 1098.66 155.562 1101.63 155.562C1104.73 155.562 1106.77 153.507 1106.77 150.144V148.213C1105.6 149.521 1104.17 150.58 1101.38 150.58C1096.92 150.58 1092.15 146.594 1092.15 140.739ZM1107.08 140.802C1107.08 137.065 1104.42 134.823 1101.88 134.823C1099.15 134.823 1096.49 137.003 1096.42 140.864C1096.42 144.414 1099.03 146.719 1101.82 146.719C1104.48 146.719 1107.08 144.663 1107.08 140.802Z" fill="#8C98A4"/>
<path fill-rule="evenodd" clip-rule="evenodd" d="M1119.97 140.678C1119.97 134.824 1124.12 130.9 1129.08 130.9C1132.92 130.9 1135.83 133.516 1137.13 136.505L1137.81 138.124L1124.74 143.605C1125.55 145.1 1126.79 146.595 1129.51 146.595C1131.93 146.595 1133.41 145.287 1134.28 143.917L1137.69 146.221C1136.2 148.214 1133.6 150.518 1129.51 150.518C1124.62 150.518 1119.97 146.844 1119.97 140.678ZM1132.86 136.816C1132.24 135.633 1131 134.699 1129.2 134.699C1126.41 134.699 1123.69 137.626 1124.18 140.491L1132.86 136.816Z" fill="#8C98A4"/>
<path d="M1113.77 149.957H1118.05V121.059H1113.77V149.957Z" fill="#8C98A4"/>
<path fill-rule="evenodd" clip-rule="evenodd" d="M1288.82 146.429C1289 146.844 1289.18 147.319 1289.36 147.793C1289.89 149.158 1290.01 150.463 1289.84 151.767C1289.42 154.496 1287.63 156.869 1285.02 157.936C1284.06 158.351 1283.05 158.529 1281.98 158.529C1281.68 158.529 1281.33 158.529 1281.03 158.47C1279.78 158.351 1278.53 157.936 1277.28 157.224C1275.79 156.394 1274.31 155.148 1272.64 153.369C1270.98 155.148 1269.55 156.394 1268 157.224C1266.75 157.936 1265.5 158.292 1264.25 158.47C1264.1 158.47 1263.94 158.485 1263.78 158.5L1263.78 158.5C1263.61 158.515 1263.45 158.529 1263.3 158.529C1262.23 158.529 1261.22 158.351 1260.27 157.936C1257.71 156.869 1255.81 154.555 1255.39 151.767C1255.21 150.403 1255.39 149.098 1255.87 147.793C1256.04 147.26 1256.22 146.844 1256.4 146.429C1256.7 145.777 1257 145.124 1257.23 144.531L1257.29 144.472C1259.91 138.896 1262.65 133.261 1265.5 127.686L1265.62 127.448C1265.92 126.914 1266.22 126.321 1266.51 125.728C1266.59 125.603 1266.67 125.475 1266.76 125.346L1266.76 125.346C1267.1 124.804 1267.45 124.238 1267.88 123.711C1269.13 122.288 1270.8 121.458 1272.64 121.458C1274.43 121.458 1276.15 122.288 1277.34 123.771C1277.94 124.423 1278.35 125.135 1278.71 125.788L1278.71 125.788C1279.01 126.381 1279.3 126.974 1279.6 127.508L1279.72 127.745C1282.64 133.321 1285.37 138.955 1287.93 144.531H1287.99C1288.23 145.124 1288.53 145.777 1288.82 146.429ZM1318.09 130.768C1318.09 132.133 1317.02 133.2 1315.65 133.2C1314.29 133.2 1313.22 132.133 1313.22 130.768C1313.22 129.404 1314.29 128.336 1315.65 128.336C1317.08 128.396 1318.09 129.463 1318.09 130.768ZM1308.16 135.633V136.227C1308.16 136.227 1307.03 134.744 1304.53 134.744C1300.48 134.744 1297.33 137.828 1297.33 142.099C1297.33 146.31 1300.48 149.454 1304.53 149.454C1307.03 149.454 1308.16 147.912 1308.16 147.912V148.564C1308.16 148.861 1308.4 149.098 1308.69 149.098H1311.73V135.1H1308.69C1308.34 135.1 1308.16 135.337 1308.16 135.633ZM1305.12 146.074C1306.49 146.074 1307.62 145.362 1308.16 144.531V139.549C1307.62 138.778 1306.43 138.007 1305.12 138.007C1302.74 138.007 1300.9 139.49 1300.9 142.04C1300.9 144.591 1302.74 146.074 1305.12 146.074ZM1313.87 135.099H1317.44V149.038H1313.87V135.099ZM1363.6 136.226C1363.6 136.226 1364.79 134.744 1367.23 134.744C1371.28 134.744 1374.43 137.828 1374.43 142.039C1374.43 146.251 1371.28 149.394 1367.23 149.394C1364.74 149.394 1363.6 147.852 1363.6 147.852V148.505C1363.6 148.801 1363.37 149.038 1363.07 149.038H1360.04V128.397H1363.6V136.226ZM1366.64 146.013C1365.27 146.013 1364.2 145.301 1363.6 144.471V139.488C1364.14 138.717 1365.33 137.946 1366.64 137.946C1369.02 137.946 1370.86 139.429 1370.86 141.98C1370.86 144.53 1369.02 146.013 1366.64 146.013ZM1358.19 149.098V140.794C1358.19 138.421 1357.72 137.116 1356.53 136.108C1355.46 135.218 1354.15 134.744 1352.6 134.744C1351.23 134.744 1349.86 135.159 1348.79 136.227V135.633C1348.79 135.337 1348.55 135.1 1348.26 135.1H1345.4V149.098H1348.97V139.37C1349.68 138.54 1350.81 138.006 1351.89 138.006C1353.85 138.006 1354.62 138.896 1354.62 141.209V149.098H1358.19ZM1336.72 134.744C1334.28 134.744 1333.09 136.226 1333.09 136.226V128.397H1329.52V149.038H1332.55C1332.85 149.038 1333.09 148.801 1333.09 148.505V147.852C1333.09 147.852 1334.22 149.394 1336.72 149.394C1340.76 149.394 1343.91 146.251 1343.91 142.039C1343.97 137.828 1340.82 134.744 1336.72 134.744ZM1333.09 144.471C1333.68 145.301 1334.75 146.013 1336.12 146.013C1338.5 146.013 1340.34 144.53 1340.34 141.98C1340.34 139.429 1338.5 137.946 1336.12 137.946C1334.81 137.946 1333.62 138.717 1333.09 139.488V144.471ZM1326.48 134.744C1327.55 134.744 1328.15 134.922 1328.15 134.922V138.243C1328.15 138.243 1325.17 137.235 1323.33 139.37V149.098H1319.76V135.1H1322.79C1323.09 135.1 1323.33 135.337 1323.33 135.633V136.227C1323.92 135.456 1325.35 134.744 1326.48 134.744ZM1272.58 149.69C1270.56 147.139 1269.25 144.767 1268.83 142.809C1268.66 141.979 1268.6 141.208 1268.71 140.555C1268.77 139.962 1269.01 139.428 1269.31 139.013C1270.02 138.005 1271.21 137.352 1272.58 137.352C1273.95 137.352 1275.2 137.946 1275.85 139.013C1276.15 139.488 1276.39 139.962 1276.45 140.555C1276.57 141.208 1276.51 141.979 1276.33 142.809C1275.91 144.767 1274.6 147.139 1272.58 149.69ZM1284.07 155.8C1285.91 155.088 1287.22 153.427 1287.46 151.47C1287.58 150.461 1287.46 149.572 1287.28 148.623C1287.21 148.43 1287.13 148.237 1287.04 148.026C1286.97 147.847 1286.88 147.654 1286.8 147.436C1286.65 147.14 1286.52 146.828 1286.39 146.517C1286.25 146.206 1286.12 145.894 1285.97 145.598V145.538C1283.41 140.022 1280.67 134.387 1277.82 128.871L1277.7 128.633C1277.4 128.04 1277.1 127.447 1276.81 126.913C1276.51 126.32 1276.15 125.727 1275.74 125.252C1274.96 124.363 1273.89 123.888 1272.76 123.888C1271.63 123.888 1270.56 124.363 1269.79 125.252C1269.37 125.786 1269.01 126.32 1268.72 126.913C1268.42 127.506 1268.12 128.1 1267.82 128.633L1267.7 128.871C1264.79 134.387 1262.05 140.022 1259.49 145.538L1259.44 145.598C1259.14 146.191 1258.84 146.843 1258.6 147.436C1258.42 147.851 1258.25 148.267 1258.13 148.623C1257.71 149.69 1257.65 150.58 1257.77 151.529C1258.01 153.427 1259.32 155.088 1261.16 155.859C1261.99 156.156 1262.95 156.334 1263.96 156.215C1264.91 156.096 1265.86 155.8 1266.81 155.266C1268.12 154.495 1269.49 153.368 1271.04 151.648C1268.6 148.623 1267.05 145.835 1266.51 143.403C1266.22 142.276 1266.16 141.208 1266.34 140.259C1266.51 139.31 1266.81 138.48 1267.35 137.709C1268.48 136.107 1270.44 135.099 1272.58 135.099C1274.72 135.099 1276.69 136.048 1277.82 137.709C1278.35 138.48 1278.65 139.31 1278.83 140.259C1278.95 141.208 1278.89 142.276 1278.65 143.403C1278.06 145.835 1276.57 148.563 1274.13 151.588C1275.68 153.308 1276.99 154.435 1278.35 155.207C1279.37 155.74 1280.26 156.037 1281.21 156.156C1282.22 156.274 1283.17 156.156 1284.07 155.8Z" fill="#8C98A4"/>
<path d="M1510.62 128.478V142.53C1510.62 147.214 1508.6 149.161 1503.84 149.161C1499.08 149.161 1497.05 147.214 1497.05 142.53V127.87H1492.47C1492.06 127.87 1491.88 128.052 1491.88 128.478V142.713C1491.88 150.56 1496.76 153.298 1503.84 153.298C1510.92 153.298 1515.79 150.56 1515.79 142.713V127.87H1511.21C1510.86 127.87 1510.62 128.052 1510.62 128.478Z" fill="#8C98A4"/>
<path d="M1577.07 131.945C1577.43 131.945 1577.61 131.823 1577.72 131.519L1579.03 128.174C1579.09 127.991 1579.03 127.869 1578.85 127.869H1560.41C1558.69 127.869 1558.03 128.417 1558.03 129.634V151.411C1558.03 152.446 1558.51 152.871 1559.88 152.871H1577.07C1577.43 152.871 1577.61 152.75 1577.72 152.446L1579.03 149.1C1579.09 148.917 1579.03 148.796 1578.85 148.796H1563.09V144.355C1563.09 142.834 1563.92 142.104 1566.12 142.104H1572.96C1573.32 142.104 1573.5 141.982 1573.62 141.678L1574.87 138.454C1574.93 138.272 1574.87 138.15 1574.69 138.15H1563.03V131.945H1577.07Z" fill="#8C98A4"/>
<path fill-rule="evenodd" clip-rule="evenodd" d="M1547.44 134.196C1547.44 136.568 1546.61 138.576 1544.59 139.671C1547.32 140.462 1548.57 142.956 1548.51 145.937C1548.51 150.925 1545.06 152.871 1540.24 152.871H1527.45C1526.09 152.871 1525.61 152.446 1525.61 151.411V129.634C1525.61 128.417 1526.26 127.869 1527.99 127.869H1538.46C1543.04 127.869 1547.44 128.66 1547.44 134.196ZM1530.73 131.885H1538.82C1541.49 131.885 1542.27 132.919 1542.27 135.109C1542.27 137.238 1541.49 138.333 1538.82 138.333H1530.73V131.885ZM1539.77 148.857H1530.73V144.294C1530.73 142.773 1531.56 142.043 1533.76 142.043H1539.77C1542.62 142.043 1543.46 143.199 1543.46 145.45C1543.46 147.762 1542.62 148.857 1539.77 148.857Z" fill="#8C98A4"/>
<path fill-rule="evenodd" clip-rule="evenodd" d="M1605.57 142.834L1611.04 152.446C1611.16 152.567 1611.16 152.871 1610.74 152.871H1606.1C1605.76 152.871 1605.64 152.703 1605.47 152.474C1605.46 152.464 1605.46 152.455 1605.45 152.446L1600.51 143.321H1595.99C1593.79 143.321 1592.96 144.051 1592.96 145.572V152.871H1588.49C1588.08 152.871 1587.9 152.689 1587.9 152.263V129.634C1587.9 128.417 1588.55 127.869 1590.28 127.869H1600.75C1606.82 127.869 1610.51 129.512 1610.51 135.595C1610.51 140.279 1608.3 142.104 1605.57 142.834ZM1592.95 139.489H1601.46C1604.67 139.489 1605.33 138.211 1605.33 135.656C1605.33 133.162 1604.61 131.885 1601.46 131.885H1592.95V139.489Z" fill="#8C98A4"/>
</g>
</svg>
